<?xml version="1.0" standalone="no"?>
<!DOCTYPE svg PUBLIC "-//W3C//DTD SVG 20010904//EN"
 "http://www.w3.org/TR/2001/REC-SVG-20010904/DTD/svg10.dtd">
<svg version="1.0" xmlns="http://www.w3.org/2000/svg"
 width="320.000000pt" height="320.000000pt" viewBox="0 0 320.000000 320.000000"
 preserveAspectRatio="xMidYMid meet">
<metadata>
Created by potrace 1.11, written by Peter Selinger 2001-2013
</metadata>
<g transform="translate(0.000000,320.000000) scale(0.100000,-0.100000)"
fill="#000000" stroke="none">
<path d="M2321 3012 c-18 -12 -25 -14 -29 -4 -2 6 -8 12 -14 12 -6 0 -6 -6 2
-15 16 -20 23 -19 51 5 29 24 23 25 -10 2z"/>
<path d="M841 3005 c16 -16 49 -11 49 7 0 6 -7 4 -17 -3 -13 -11 -17 -11 -20
-1 -3 6 -10 12 -16 12 -7 0 -5 -6 4 -15z"/>
<path d="M1000 3006 c29 -18 9 -22 -23 -4 -19 10 -20 9 -10 -3 12 -14 6 -15
-50 -10 -5 1 -6 5 -3 10 4 5 -5 4 -19 -2 -14 -7 -25 -15 -25 -20 0 -4 -12 0
-26 10 -36 23 -63 26 -70 8 -4 -8 -13 -15 -21 -15 -8 0 -11 5 -7 12 4 7 3 8
-5 4 -6 -4 -9 -12 -6 -17 4 -5 1 -9 -5 -9 -6 0 -8 -5 -4 -12 6 -10 4 -10 -8 0
-13 10 -18 10 -24 1 -4 -7 -3 -9 3 -6 6 4 14 0 17 -9 4 -12 2 -15 -9 -11 -18
7 -30 -9 -14 -19 8 -5 9 -3 4 6 -5 8 -4 11 3 7 12 -8 10 -32 -3 -44 -4 -4 -5
-3 -2 3 4 7 0 15 -9 18 -8 3 -13 2 -10 -2 12 -19 16 -72 6 -72 -6 0 -8 5 -5
10 3 6 2 10 -4 10 -5 0 -9 -9 -8 -19 0 -11 4 -18 8 -15 4 2 13 -4 20 -14 12
-15 12 -16 -2 -5 -19 15 -33 5 -18 -13 7 -8 6 -14 -2 -20 -8 -4 -9 -3 -5 4 4
7 2 12 -3 12 -6 0 -11 -9 -11 -19 0 -11 -4 -23 -10 -26 -13 -8 -13 -25 1 -25
5 0 8 4 5 9 -3 5 1 14 8 20 11 9 16 9 22 0 4 -7 3 -9 -3 -6 -14 9 -24 -28 -11
-41 5 -5 2 -14 -8 -23 -10 -8 -15 -9 -11 -3 3 6 0 11 -7 11 -8 0 -11 -8 -8
-19 2 -10 9 -15 16 -11 6 4 5 -1 -3 -10 -15 -19 -26 -23 -15 -5 5 7 3 8 -5 4
-7 -5 -10 -14 -7 -22 3 -7 -3 -18 -12 -24 -13 -9 -13 -10 -2 -7 12 4 16 -3 15
-24 0 -20 -5 -29 -17 -29 -9 0 -19 -4 -22 -9 -3 -4 9 -7 27 -5 25 3 28 1 15
-7 -10 -5 -15 -16 -12 -24 4 -8 1 -15 -6 -15 -6 0 -8 5 -5 10 3 6 1 10 -5 10
-7 0 -9 -7 -6 -16 5 -12 2 -15 -9 -10 -10 3 -13 2 -10 -5 4 -5 16 -7 28 -4 18
5 19 4 7 -4 -13 -10 -13 -12 0 -21 8 -5 10 -10 5 -10 -6 0 -17 6 -24 13 -11
10 -12 9 -6 -2 6 -11 4 -13 -9 -8 -10 4 -15 3 -11 -3 3 -6 13 -10 21 -10 9 0
12 -8 10 -22 -3 -13 -5 -26 -5 -30 -1 -5 -6 -8 -12 -8 -8 0 -8 5 1 15 10 12 9
15 -5 15 -10 0 -15 -3 -12 -7 4 -3 0 -15 -10 -25 -9 -11 -11 -18 -5 -18 7 0
12 5 12 12 0 6 3 8 7 4 10 -9 11 -66 1 -60 -4 3 -8 -2 -8 -10 0 -9 -5 -16 -11
-16 -5 0 -7 -5 -4 -10 4 -6 11 -7 17 -4 7 5 8 2 4 -5 -5 -7 -15 -10 -23 -7 -8
3 -11 2 -8 -3 3 -5 1 -13 -5 -16 -7 -4 -8 -11 -2 -18 12 -15 -3 -57 -20 -57
-8 0 -9 -3 -3 -8 24 -17 7 -70 -19 -55 -6 3 -6 0 2 -8 14 -15 16 -33 3 -25 -5
4 -8 -2 -6 -11 2 -10 4 -22 4 -26 1 -5 5 -5 11 -2 6 3 10 1 10 -4 0 -6 -8 -11
-17 -11 -15 0 -16 -2 -3 -10 10 -6 11 -10 3 -10 -7 0 -13 -7 -13 -15 0 -8 6
-15 13 -15 8 0 8 -3 -2 -9 -13 -8 -13 -12 0 -27 12 -16 12 -17 -1 -9 -8 5 -22
10 -30 12 -11 1 -11 -1 3 -11 16 -13 16 -14 1 -20 -13 -5 -14 -10 -6 -18 6 -6
8 -17 5 -26 -5 -11 -3 -13 7 -7 9 6 11 4 6 -4 -5 -7 -10 -10 -13 -7 -3 3 -11
-1 -18 -7 -14 -13 -9 -40 6 -31 15 9 10 -3 -8 -17 -10 -8 -14 -9 -10 -2 4 6 3
14 -2 17 -5 4 -8 -2 -6 -11 1 -10 -4 -26 -13 -35 -8 -10 -10 -18 -4 -18 6 0
13 6 16 13 3 6 3 -6 -1 -27 -4 -30 -3 -37 7 -31 9 6 11 4 6 -4 -5 -7 -15 -10
-23 -7 -8 3 -11 1 -8 -4 3 -6 -1 -13 -10 -16 -13 -5 -14 -9 -4 -15 7 -4 14
-15 15 -23 1 -9 -2 -14 -7 -10 -5 3 -6 10 -3 16 4 7 2 8 -4 4 -6 -4 -8 -14 -5
-23 4 -11 3 -14 -5 -9 -8 5 -10 2 -5 -9 4 -13 7 -14 14 -3 6 9 8 6 6 -10 -2
-25 -2 -25 -28 -12 -10 6 -19 8 -19 6 0 -3 12 -12 26 -19 22 -12 24 -15 10
-20 -12 -5 -15 -3 -10 6 5 9 3 8 -7 -1 -12 -11 -12 -14 1 -22 8 -5 18 -6 22
-4 4 3 8 1 8 -4 0 -6 -7 -13 -16 -16 -10 -4 -13 -2 -8 6 4 7 3 8 -5 4 -9 -6
-9 -11 0 -22 9 -11 8 -15 -5 -20 -14 -5 -14 -9 -4 -22 11 -13 10 -15 -4 -9
-10 3 -20 1 -24 -5 -4 -6 -3 -8 4 -4 6 3 13 2 17 -4 4 -6 12 -7 18 -3 7 4 6 0
-2 -10 -15 -18 -26 -23 -16 -7 3 6 1 10 -4 10 -6 0 -11 -17 -11 -37 0 -30 -3
-35 -11 -23 -8 11 -9 9 -3 -10 6 -23 6 -24 -11 -10 -17 13 -18 13 -10 0 10
-15 11 -20 14 -41 0 -5 6 -7 13 -3 7 4 8 3 4 -5 -6 -9 -11 -9 -22 0 -12 10
-13 9 -8 -6 6 -14 4 -16 -6 -10 -8 5 -11 4 -6 -3 3 -6 15 -9 26 -7 12 2 18 0
15 -6 -4 -5 -10 -7 -14 -4 -5 2 -11 -10 -15 -27 -4 -21 -2 -34 6 -40 7 -4 8
-8 3 -8 -6 0 -17 6 -24 13 -11 10 -12 9 -6 -1 4 -8 9 -29 11 -47 2 -27 -1 -34
-18 -38 -16 -5 -19 -9 -11 -19 13 -16 13 -49 1 -42 -5 4 -7 12 -4 20 3 8 0 11
-10 7 -11 -4 -12 -9 -5 -16 17 -17 13 -37 -6 -37 -12 -1 -7 -6 12 -15 27 -12
26 -15 -10 -19 -5 -1 -11 -6 -12 -11 -1 -6 5 -9 14 -7 8 2 12 -1 8 -7 -3 -6
-14 -11 -23 -11 -14 0 -15 -2 -2 -10 9 -6 20 -5 30 3 10 8 9 5 -2 -9 -10 -11
-18 -33 -18 -47 0 -15 -5 -27 -11 -27 -5 0 -7 -5 -4 -10 4 -6 10 -8 14 -6 4 3
8 -1 8 -9 0 -8 -4 -12 -8 -10 -4 3 -10 -2 -13 -11 -8 -21 -8 -24 5 -24 5 0 7
6 3 13 -5 8 -3 8 9 -2 9 -7 14 -17 11 -22 -3 -5 2 -12 10 -15 14 -5 14 -8 0
-21 -11 -12 -12 -18 -3 -29 6 -8 15 -11 20 -8 6 3 8 -6 5 -20 -3 -15 -1 -24 5
-21 5 4 9 1 9 -4 0 -6 5 -11 12 -11 6 0 4 7 -5 18 -14 15 -15 19 -2 19 8 0 12
-4 9 -8 -2 -4 4 -12 13 -18 10 -6 12 -11 6 -11 -7 0 -13 -5 -13 -11 0 -5 4 -7
10 -4 6 4 7 -1 3 -11 -5 -12 -3 -15 6 -9 10 5 11 2 6 -14 -4 -13 -2 -21 5 -21
6 0 8 5 4 12 -4 7 -3 8 5 4 6 -4 9 -12 6 -17 -4 -5 -2 -9 3 -9 5 0 14 -12 20
-26 7 -14 16 -23 21 -19 5 3 13 0 17 -6 4 -8 3 -9 -4 -5 -17 10 -15 1 6 -34
10 -16 22 -27 27 -22 5 4 5 1 0 -7 -7 -12 -10 -11 -21 4 -12 16 -13 16 -11 -2
1 -22 37 -29 49 -10 6 9 8 9 8 0 0 -6 -5 -15 -11 -19 -8 -4 -3 -12 12 -21 13
-8 16 -12 7 -9 -12 3 -15 1 -11 -9 3 -8 10 -12 15 -8 7 4 9 -4 6 -21 -4 -18
-2 -24 4 -18 6 6 17 8 25 5 11 -4 10 -8 -4 -19 -15 -11 -15 -13 -3 -14 9 0 20
4 26 10 6 6 10 3 11 -10 1 -11 -3 -23 -9 -26 -8 -5 -9 -1 -4 12 6 15 5 17 -5
6 -11 -10 -10 -16 5 -30 11 -9 16 -11 12 -5 -5 9 0 12 17 11 17 -2 23 -7 19
-16 -4 -11 1 -11 21 2 25 17 25 17 22 -11 l-3 -28 15 22 c9 13 20 23 25 23 6
0 5 -7 -2 -15 -11 -13 -10 -14 5 -9 14 6 16 4 10 -7 -5 -8 -1 -7 12 3 11 10
22 18 26 18 3 0 4 -8 1 -18 -5 -16 -5 -16 6 1 8 13 15 15 30 7 13 -7 21 -7 26
2 4 6 3 8 -3 5 -6 -4 -17 1 -24 11 -12 15 -12 16 2 5 12 -10 18 -10 29 0 10
10 11 9 5 -2 -6 -11 -2 -12 20 -7 25 6 27 5 15 -9 -11 -13 -10 -14 5 -9 14 6
16 4 10 -6 -5 -7 3 -5 17 6 14 10 23 24 20 29 -3 6 1 4 10 -2 8 -7 18 -10 21
-6 4 3 7 1 7 -5 0 -7 7 -12 15 -12 8 0 15 5 15 11 0 5 -5 7 -12 3 -7 -4 -8 -3
-4 5 6 9 11 9 22 0 7 -6 11 -16 7 -22 -3 -6 -1 -7 6 -3 6 4 9 12 6 17 -4 5 -1
9 5 9 6 0 9 4 6 9 -3 5 1 11 9 14 10 4 12 1 9 -11 -5 -14 -4 -14 4 -2 6 8 8
18 6 22 -3 4 1 8 8 8 7 1 2 7 -12 15 -14 8 -19 14 -12 15 6 0 12 7 12 16 0 8
4 13 8 10 5 -3 7 12 6 32 -1 20 -2 47 -3 60 -1 15 -5 21 -13 16 -7 -4 -8 -3
-4 4 4 6 14 9 24 6 9 -3 6 2 -8 10 -14 8 -20 15 -14 16 8 0 11 27 10 84 -1 47
1 83 5 80 4 -2 5 -17 4 -34 -1 -17 4 -35 13 -42 13 -11 14 -11 7 2 -6 8 -10
27 -11 43 -3 52 -4 58 -12 53 -4 -2 -8 6 -8 19 0 13 4 21 10 18 5 -4 7 1 3 11
-4 10 -7 20 -7 22 0 2 -8 4 -17 5 -15 0 -15 2 2 8 12 5 23 4 27 -3 4 -6 6 -1
5 11 0 12 -6 21 -12 20 -5 -1 -9 4 -7 11 1 6 -5 12 -15 12 -14 0 -14 -2 2 -20
10 -11 15 -20 10 -20 -17 0 -34 35 -23 47 7 9 7 13 -1 13 -7 0 -9 4 -6 10 3 6
-1 7 -10 3 -13 -4 -14 -7 -3 -14 9 -6 6 -8 -9 -7 -12 1 -19 7 -16 14 3 9 -3
11 -18 7 -17 -5 -20 -3 -14 8 5 8 -1 5 -13 -5 -21 -19 -28 -13 -23 18 1 5 -5
4 -13 -4 -18 -14 -22 -25 -6 -15 6 3 10 1 10 -4 0 -17 -27 -13 -34 5 -4 9 -11
12 -18 7 -19 -11 -37 -12 -43 -3 -3 5 -1 11 5 15 13 8 13 25 -1 25 -5 0 -7 -4
-4 -10 4 -6 -1 -7 -11 -3 -11 4 -13 8 -6 11 7 2 10 8 6 13 -3 5 0 9 5 9 6 0
11 5 11 11 0 5 -4 8 -8 5 -5 -3 -9 1 -9 9 0 8 4 12 9 9 4 -3 8 3 8 13 0 11 6
25 13 32 10 11 7 12 -13 6 -18 -4 -21 -3 -11 3 8 6 11 17 8 25 -4 11 -1 14 8
10 8 -3 12 -10 8 -16 -3 -6 -1 -7 5 -3 10 6 10 19 -1 56 -2 8 -2 12 0 8 3 -5
10 -8 15 -8 6 0 8 3 5 7 -4 3 1 12 11 20 16 13 15 14 -4 8 -14 -3 -21 -1 -21
9 0 8 6 12 15 9 12 -5 12 -2 2 17 -7 12 -7 20 -2 16 6 -3 13 -2 17 4 3 5 0 10
-7 10 -11 0 -11 2 0 9 12 7 18 25 21 54 1 5 5 6 10 2 5 -3 13 0 17 6 4 7 3 9
-3 6 -6 -4 -17 1 -24 10 -12 15 -12 16 4 10 15 -6 16 -4 5 16 -13 23 -20 53
-11 43 9 -9 34 23 37 47 3 31 15 49 28 41 7 -4 8 -2 4 4 -5 9 -13 9 -27 2 -13
-7 -19 -7 -19 0 0 5 4 10 9 10 5 0 8 13 7 29 -1 18 2 27 9 24 8 -2 10 7 7 28
-3 22 -1 30 7 25 6 -4 9 -11 7 -15 -3 -4 1 -8 9 -8 12 0 12 3 3 14 -9 11 -8
17 3 24 8 5 9 9 3 9 -5 0 -19 7 -30 15 -16 13 -16 14 -1 9 13 -5 16 -2 11 12
-5 15 -4 16 4 4 6 -8 9 -17 7 -20 -2 -4 2 -7 10 -7 8 0 13 3 10 5 -3 3 1 12 8
20 7 10 8 13 1 9 -7 -4 -18 1 -25 10 -10 12 -10 14 -1 9 8 -5 12 -1 12 10 0 9
8 23 18 30 13 11 14 13 1 9 -9 -3 -22 2 -29 12 -12 15 -12 16 0 6 10 -9 17
-10 27 -2 7 7 13 8 13 4 0 -4 7 -2 15 5 9 7 19 10 22 6 4 -4 1 -11 -7 -16 -13
-9 -13 -10 0 -11 8 -1 22 -1 30 0 10 1 11 -1 4 -6 -6 -4 -13 -16 -17 -26 -6
-15 -4 -16 16 -6 22 12 22 11 4 -9 -12 -12 -14 -21 -7 -24 6 -2 12 -12 14 -21
1 -10 9 -23 17 -29 11 -8 11 -9 -3 -5 -9 3 -19 0 -22 -8 -3 -10 0 -12 12 -9
15 5 15 4 -1 -9 -15 -13 -15 -15 -3 -20 9 -4 20 1 25 11 7 13 9 11 8 -10 -1
-14 -6 -24 -11 -20 -5 3 -7 -2 -3 -11 3 -9 1 -18 -6 -21 -8 -3 -7 -5 2 -5 8
-1 20 7 28 17 9 10 12 11 7 2 -4 -8 -14 -23 -22 -33 -12 -14 -13 -20 -3 -30
10 -9 11 -9 6 4 -4 10 0 19 11 23 14 5 15 4 4 -9 -7 -8 -9 -15 -4 -15 5 0 -2
-9 -16 -19 -21 -17 -22 -19 -5 -18 17 2 19 -4 19 -44 0 -37 3 -46 15 -41 10 4
12 1 6 -9 -7 -12 -6 -12 7 -1 13 10 18 10 24 1 4 -8 3 -9 -4 -5 -13 8 -16 -6
-5 -18 4 -4 8 -17 9 -29 1 -12 3 -26 4 -32 5 -20 0 -46 -8 -41 -5 3 -9 -1 -9
-8 0 -7 6 -13 13 -13 7 0 11 4 8 8 -2 4 0 10 5 13 5 4 8 -2 6 -11 -2 -10 -4
-21 -4 -25 -1 -4 -9 -4 -18 -1 -16 6 -16 5 1 -12 14 -14 21 -16 24 -7 2 6 8
12 14 12 6 0 3 -9 -7 -20 -11 -12 -13 -20 -6 -20 7 0 10 -4 6 -10 -3 -5 -11
-8 -18 -6 -7 1 -9 1 -4 -1 4 -3 4 -10 0 -16 -4 -7 1 -6 10 2 20 16 23 2 5 -18
-11 -11 -10 -12 0 -6 9 5 12 1 10 -11 -2 -14 2 -18 16 -16 10 2 15 -1 12 -6
-3 -6 0 -13 6 -16 7 -3 3 -3 -9 -1 -12 3 -24 1 -28 -5 -4 -6 -3 -10 2 -9 24 4
29 -6 30 -56 0 -31 3 -58 6 -62 4 -3 2 -15 -4 -26 -7 -13 -7 -17 -1 -13 17 10
25 -14 10 -31 -7 -10 -8 -14 -1 -10 6 4 18 0 26 -8 9 -9 17 -11 20 -5 3 6 4 5
3 -2 -2 -7 -11 -12 -20 -12 -9 1 -16 -2 -16 -7 0 -5 8 -9 17 -9 9 0 14 -3 10
-6 -3 -4 1 -13 9 -21 9 -9 12 -23 8 -35 -3 -11 -2 -18 3 -15 5 3 9 -3 9 -14 0
-12 -4 -15 -10 -9 -6 6 -15 10 -20 10 -6 0 2 -10 16 -21 23 -18 25 -24 15 -41
-10 -15 -9 -20 2 -27 19 -12 23 -74 5 -67 -24 9 -15 -1 19 -23 17 -11 26 -21
19 -21 -10 0 -10 -5 -1 -22 11 -22 11 -22 -6 -8 -15 13 -15 9 4 -29 12 -24 18
-40 12 -36 -21 13 -11 -7 14 -26 20 -16 23 -24 15 -44 -7 -19 -6 -23 5 -18 8
3 13 8 10 12 -2 4 2 8 9 8 9 0 12 -7 8 -16 -5 -13 -2 -13 22 2 27 18 27 18 17
-2 -14 -25 0 -35 25 -16 18 15 18 15 -1 8 -11 -3 -17 -3 -14 1 11 12 50 16 43
4 -7 -11 -4 -10 44 9 6 3 12 0 12 -7 0 -6 -4 -9 -9 -6 -5 3 -14 -1 -21 -9 -9
-10 -9 -15 -1 -15 6 0 11 5 11 12 0 6 3 8 7 5 3 -4 15 1 26 10 20 17 20 17 13
-1 -5 -16 -4 -17 8 -7 8 7 27 14 42 17 24 4 26 3 14 -11 -11 -13 -10 -14 5 -9
14 6 16 4 10 -7 -5 -8 -1 -7 12 4 25 22 34 22 26 0 -5 -17 -5 -17 8 0 15 19
75 35 64 17 -3 -5 -2 -10 4 -10 5 0 13 5 16 10 3 6 11 10 17 10 6 0 5 -7 -3
-17 -13 -15 -12 -15 7 -5 12 6 24 8 28 5 4 -4 9 3 13 15 3 12 9 19 14 16 5 -3
6 -10 3 -16 -4 -7 -2 -8 5 -4 7 4 9 17 6 29 -6 22 -6 22 14 -1 18 -21 20 -21
18 -3 0 11 -4 18 -7 16 -3 -1 -11 4 -19 12 -12 13 -11 14 9 8 17 -5 21 -4 14
6 -12 21 -12 86 1 86 7 0 12 -6 12 -13 0 -7 -3 -11 -7 -9 -3 2 -6 -9 -5 -24 0
-19 4 -27 13 -24 8 4 9 9 2 17 -6 9 -6 16 2 24 7 7 8 12 4 12 -5 0 -2 8 5 17
10 11 10 14 2 9 -8 -4 -13 -2 -13 4 0 6 -5 8 -12 4 -7 -4 -8 -3 -4 5 4 6 12 9
17 6 5 -3 6 2 2 11 -4 10 -2 15 4 11 5 -3 10 0 10 8 0 8 -3 12 -7 10 -3 -2
-12 1 -20 7 -12 8 -12 9 2 4 10 -3 20 -1 23 5 4 5 11 7 16 4 5 -3 6 1 3 10 -5
11 -10 13 -19 5 -10 -8 -15 -8 -21 1 -4 7 -3 9 3 6 9 -6 25 5 34 23 1 3 -3 14
-9 26 -8 16 -8 21 2 21 8 0 12 -10 10 -24 -1 -12 2 -23 8 -23 5 0 8 8 6 18 -1
9 1 22 5 29 4 6 2 15 -4 19 -8 5 -9 3 -4 -6 5 -9 4 -11 -4 -6 -14 9 -5 26 14
26 8 0 16 4 20 9 3 6 -3 8 -14 6 -11 -2 -26 4 -33 13 -11 15 -11 15 3 5 16
-13 29 -8 29 9 0 5 -4 6 -10 3 -6 -4 -7 1 -3 11 6 16 7 15 20 -2 7 -10 13 -13
13 -7 0 7 -7 18 -15 27 -17 17 -20 30 -5 21 6 -3 10 1 10 10 0 10 -5 13 -12 9
-10 -6 -10 -5 -1 7 10 12 10 18 0 29 -10 12 -9 12 5 1 10 -7 16 -16 14 -20 -3
-4 -1 -13 4 -21 7 -11 9 -6 7 15 -1 18 3 29 10 28 6 -1 10 5 8 15 -1 9 -8 16
-14 14 -6 -1 -11 2 -11 8 0 5 5 10 12 10 6 0 3 10 -8 22 l-19 21 25 -16 25
-16 0 43 c0 24 -3 42 -7 40 -4 -3 -5 3 -1 12 5 13 3 15 -7 9 -9 -5 -11 -4 -6
4 6 9 11 9 24 -1 13 -11 14 -10 5 7 -5 11 -9 27 -8 35 1 8 -3 22 -9 30 -8 12
-7 13 3 3 15 -13 44 -6 35 8 -9 15 -13 49 -6 48 4 -1 14 -1 22 0 13 1 13 3 0
10 -8 6 -18 7 -22 5 -4 -3 -8 0 -8 6 0 6 8 10 18 8 11 -2 18 2 18 7 -1 6 -4 9
-7 8 -3 -1 -6 5 -6 13 0 9 7 13 21 9 12 -3 15 -2 9 1 -17 7 -17 54 0 54 8 0 7
3 -3 9 -8 6 -19 7 -25 4 -5 -4 -3 2 6 13 9 10 15 26 13 34 -2 8 3 0 11 -17 19
-41 27 -43 13 -3 -8 23 -7 34 3 47 12 14 11 15 -11 10 -14 -4 -19 -4 -12 -1 6
3 12 13 12 22 0 15 2 15 10 2 8 -13 11 -13 22 -1 10 10 10 12 1 7 -7 -4 -13
-3 -13 3 0 5 -3 16 -6 25 -3 9 -1 16 5 16 6 0 10 -5 9 -11 -2 -6 4 -14 12 -16
10 -3 11 -2 4 4 -6 4 -10 16 -8 26 1 9 -2 14 -8 11 -6 -4 -3 5 6 18 9 14 13
28 9 33 -5 4 1 5 12 2 19 -7 19 -6 3 7 -17 13 -26 52 -10 43 4 -3 13 2 21 10
12 13 11 14 -10 9 l-24 -7 25 22 25 22 -25 -7 c-14 -3 -19 -3 -12 0 10 5 10 9
0 22 -7 10 -8 14 -4 10 5 -4 16 -2 25 5 14 11 14 10 2 -5 -9 -12 -10 -18 -2
-18 6 0 11 3 12 8 0 4 2 15 4 24 2 10 -2 21 -7 25 -7 4 -8 1 -3 -7 5 -9 4 -11
-4 -6 -6 4 -9 12 -5 17 3 5 9 7 14 4 11 -7 21 22 13 42 -4 10 -2 14 4 10 5 -3
10 0 10 8 0 8 -5 11 -11 8 -6 -3 -8 -3 -4 2 4 4 3 13 -2 20 -7 8 -5 12 5 12 8
0 12 -4 9 -9 -9 -15 3 -8 17 9 8 10 9 14 2 10 -6 -4 -14 -3 -18 3 -4 6 -12 7
-18 4 -7 -4 -1 6 13 22 14 16 28 34 33 39 4 6 5 1 1 -10 -6 -16 -5 -18 7 -7 7
6 17 12 23 12 5 0 2 -6 -9 -13 -18 -14 -14 -37 8 -37 8 0 8 3 -2 9 -9 6 -10
11 -2 15 6 4 11 4 12 -1 0 -4 2 -16 4 -25 3 -14 0 -16 -15 -8 -11 6 -23 16
-27 24 -7 12 -10 11 -23 -2 -13 -14 -12 -15 3 -9 11 4 20 1 23 -8 3 -8 15 -17
25 -20 17 -6 18 -9 7 -23 -10 -12 -10 -14 0 -8 12 7 17 -9 14 -47 -1 -10 3
-15 8 -12 6 3 10 -1 10 -10 0 -10 -5 -13 -12 -9 -8 5 -7 0 2 -11 14 -17 13
-18 -5 -12 -19 7 -19 6 -2 -7 10 -8 19 -23 20 -34 0 -11 5 -18 9 -16 5 3 6 9
4 13 -3 4 2 8 10 8 10 0 11 -4 4 -11 -5 -5 -10 -18 -10 -28 0 -10 -5 -18 -12
-18 -6 0 -8 -3 -5 -6 4 -4 13 -2 20 4 10 9 14 8 14 -3 0 -8 -6 -15 -13 -15 -7
0 -16 -5 -20 -11 -4 -8 1 -9 16 -4 15 5 20 4 16 -4 -4 -6 -1 -14 7 -17 9 -3
13 -17 13 -37 -1 -18 3 -36 8 -40 7 -5 5 -7 -4 -4 -8 2 -14 10 -12 16 1 7 -2
10 -7 6 -20 -12 2 -39 29 -37 3 0 7 -9 7 -21 2 -18 0 -19 -8 -7 -9 12 -10 10
-6 -7 3 -12 0 -24 -7 -27 -6 -2 -3 -5 7 -5 9 -1 17 4 17 10 0 5 5 7 11 4 6 -5
3 -13 -10 -22 -26 -17 -27 -33 -3 -33 14 0 15 2 2 10 -13 8 -13 10 1 10 12 0
16 -8 15 -30 0 -16 -5 -30 -9 -30 -5 0 -7 7 -4 14 4 10 1 13 -9 9 -11 -4 -12
-8 -2 -20 9 -11 9 -16 0 -22 -7 -4 -4 -11 9 -20 17 -10 20 -10 13 1 -6 10 -4
10 9 -1 19 -15 14 -33 -7 -25 -8 3 -17 1 -21 -5 -4 -7 0 -8 11 -4 10 4 15 2
11 -3 -3 -6 3 -11 14 -11 12 -1 17 3 13 9 -4 7 -2 8 5 4 16 -10 4 -26 -22 -27
l-22 0 23 -9 c12 -5 22 -12 22 -15 0 -4 -6 -3 -12 0 -7 4 -4 -1 6 -9 17 -14
17 -16 4 -16 -9 0 -20 -4 -23 -10 -4 -6 1 -7 11 -3 13 5 15 3 9 -8 -6 -11 -5
-12 6 -1 7 6 18 12 24 12 5 0 4 -4 -4 -9 -8 -5 -15 -18 -16 -28 0 -10 -4 -24
-9 -31 -4 -6 -2 -12 3 -12 6 0 11 5 11 10 0 6 4 10 8 10 5 0 9 -7 9 -15 0 -8
-3 -15 -7 -15 -3 0 -14 -6 -24 -13 -16 -12 -16 -13 6 -13 13 0 26 5 30 10 5 8
8 7 8 -1 0 -7 -10 -18 -22 -24 -28 -15 -49 -35 -42 -42 3 -2 -2 -7 -10 -10
-11 -4 -13 -1 -9 11 5 14 3 15 -8 5 -17 -17 -32 -16 -26 1 4 11 1 11 -18 2
-13 -6 -21 -15 -18 -20 4 -5 1 -6 -6 -2 -6 4 -20 2 -29 -5 -15 -12 -15 -12 1
7 21 25 23 41 2 20 -9 -8 -22 -13 -30 -10 -8 4 -15 1 -15 -6 0 -6 5 -8 10 -5
6 3 10 2 10 -4 0 -5 -15 -13 -32 -17 -29 -6 -30 -8 -13 -15 11 -4 14 -8 6 -8
-11 -1 -11 -4 0 -18 13 -15 12 -15 -8 -5 -29 16 -32 15 -30 -8 1 -11 5 -20 10
-20 5 0 6 8 2 17 -5 15 -3 14 13 -2 10 -11 16 -21 11 -23 -4 -2 -5 -10 -2 -18
3 -8 0 -14 -5 -14 -6 0 -9 9 -7 19 3 15 0 18 -13 14 -10 -4 -12 -8 -4 -11 7
-2 9 -9 5 -15 -9 -14 -12 -60 -4 -51 3 3 6 11 6 16 0 6 7 13 15 15 10 3 11 2
4 -4 -6 -4 -10 -16 -8 -25 1 -11 -4 -18 -14 -18 -12 -1 -10 -5 8 -16 24 -14
24 -15 3 -11 -13 3 -23 1 -23 -4 0 -5 7 -9 16 -9 8 0 12 -5 9 -10 -4 -6 -11
-7 -17 -4 -6 4 -5 -2 1 -15 7 -12 9 -26 6 -31 -3 -5 0 -12 6 -16 8 -5 9 -3 4
6 -5 9 -4 11 3 6 8 -5 9 -13 2 -25 -5 -10 -6 -21 -3 -25 3 -3 -2 -6 -13 -6
-16 -1 -15 -3 6 -16 24 -14 24 -15 3 -11 -13 3 -23 1 -23 -4 0 -5 7 -9 16 -9
8 0 12 -5 9 -10 -4 -6 -11 -7 -17 -4 -6 4 -5 -2 1 -15 7 -12 9 -26 6 -31 -4
-6 -3 -9 2 -8 4 2 9 -1 10 -7 1 -5 -6 -8 -15 -7 -13 3 -12 -1 6 -18 12 -11 23
-28 23 -38 3 -40 17 -72 32 -72 5 0 3 8 -6 18 -14 15 -15 19 -2 19 8 0 12 -4
9 -9 -4 -5 0 -8 7 -7 8 2 24 -1 37 -5 20 -7 21 -10 10 -24 -12 -15 -11 -16 4
-4 9 8 21 11 26 8 5 -3 9 1 9 8 0 8 -6 12 -13 9 -6 -2 -14 0 -18 5 -3 5 5 7
17 6 12 -1 29 -3 37 -3 13 -1 13 -2 0 -12 -13 -9 -13 -10 0 -6 8 2 23 -3 33
-12 15 -12 18 -13 15 -1 -3 16 79 33 88 18 4 -5 15 -2 25 8 24 21 25 7 2 -20
-18 -20 -18 -20 8 0 15 10 25 22 23 26 -2 4 1 10 7 14 7 4 9 3 6 -3 -3 -5 3
-17 14 -26 24 -21 26 -21 26 -2 0 8 -4 12 -8 9 -4 -2 -11 1 -15 8 -4 7 -4 10
1 6 4 -4 17 -3 28 3 11 7 17 7 13 1 -3 -5 3 -12 15 -15 17 -5 18 -3 7 11 -11
14 -10 15 6 8 20 -7 20 -7 0 16 -10 12 -12 17 -4 11 11 -9 19 -8 33 1 24 19
21 29 -5 16 -22 -11 -22 -10 -4 4 11 9 22 16 25 16 3 0 14 11 24 25 12 17 14
26 5 31 -7 5 -8 3 -3 -6 5 -9 4 -11 -3 -6 -9 5 -8 12 0 26 12 19 13 19 26 -3
7 -12 11 -14 8 -5 -3 9 2 19 11 22 13 5 13 9 2 23 -12 15 -12 16 4 10 11 -4
17 -1 17 9 0 8 -4 13 -9 10 -11 -7 -8 21 4 31 4 4 5 2 1 -4 -11 -20 19 -15 37
5 10 10 15 21 12 24 -3 3 1 11 9 17 8 7 12 20 9 28 -4 11 -2 14 5 9 8 -5 10
-1 5 10 -5 13 -3 15 8 10 8 -4 6 -1 -4 7 -14 12 -15 16 -4 20 8 3 19 1 25 -5
8 -8 9 -4 5 12 -5 18 -3 21 7 15 10 -6 12 -4 7 9 -11 27 9 55 36 51 21 -4 21
-4 3 10 -16 12 -17 15 -4 15 21 0 32 31 16 42 -10 6 -10 8 1 8 8 0 11 6 7 16
-3 9 -2 12 5 9 6 -4 8 -13 5 -21 -3 -7 -2 -16 3 -18 4 -3 7 8 7 25 0 16 -4 29
-9 29 -5 0 -3 8 4 17 11 13 11 15 1 9 -11 -6 -13 0 -11 31 2 21 0 44 -5 51 -4
7 -3 12 2 12 6 0 13 7 16 16 5 14 4 15 -9 4 -23 -19 -31 -3 -8 17 10 10 13 14
6 10 -7 -5 -20 -4 -30 3 -16 10 -16 11 -1 6 10 -3 20 0 24 6 5 7 2 8 -6 3 -10
-6 -12 -1 -8 18 3 15 1 24 -4 21 -4 -3 -11 3 -15 13 -4 10 -14 24 -22 31 -9 8
-10 10 -3 7 8 -4 19 1 27 11 14 20 10 38 -6 28 -5 -3 -6 -10 -3 -16 4 -7 2 -8
-4 -4 -9 5 -9 13 -2 26 7 13 7 21 -2 26 -6 4 -8 3 -4 -4 3 -6 1 -14 -6 -18 -7
-4 -10 -4 -6 1 4 4 3 14 -3 21 -7 8 -6 14 2 20 8 5 9 3 4 -7 -8 -12 -6 -12 8
0 18 14 22 22 10 20 -31 -5 -41 22 -19 50 9 12 8 13 -5 9 -11 -5 -16 -1 -15
10 0 9 -5 16 -12 14 -10 -2 -10 2 0 20 15 28 19 50 8 43 -4 -3 -11 2 -14 11
-4 10 -2 13 7 8 6 -3 1 4 -13 17 -14 13 -21 21 -15 18 5 -3 19 -9 30 -13 14
-5 11 0 -9 17 -26 21 -48 65 -25 51 5 -3 9 -1 9 5 0 5 -6 12 -12 14 -8 4 -7 6
3 6 9 1 20 9 24 19 5 14 4 15 -6 5 -20 -20 -29 -15 -29 13 0 14 4 23 8 20 5
-3 9 1 9 9 0 8 -2 13 -5 10 -5 -5 -32 20 -32 30 0 3 10 1 23 -5 20 -10 20 -10
5 3 -10 8 -14 17 -10 21 4 5 -1 6 -10 4 -9 -1 -16 2 -15 7 1 6 5 9 10 7 12 -4
8 6 -10 28 -11 13 -16 33 -14 56 2 24 -1 34 -8 30 -6 -4 -11 -1 -11 8 0 8 -3
16 -7 19 -10 5 5 1 32 -8 18 -6 18 -5 2 5 -9 6 -14 16 -11 22 4 7 2 8 -4 4 -7
-4 -12 -2 -12 4 0 6 -5 8 -12 4 -7 -5 -8 -3 -4 5 5 7 14 10 22 7 8 -3 14 -2
14 3 0 5 -9 11 -20 14 -13 3 -18 10 -14 21 5 12 2 15 -12 10 -11 -3 -15 -2 -8
3 16 12 24 53 9 47 -6 -3 -17 1 -23 9 -9 11 -8 14 3 14 8 0 12 -4 10 -8 -3 -4
5 -4 17 -1 18 5 19 7 6 10 -9 2 -16 9 -14 15 1 7 1 9 -1 5 -3 -5 -9 -8 -14 -8
-6 0 -7 4 -4 10 15 24 13 50 -5 60 -12 6 -17 16 -13 26 5 14 9 13 25 -7 17
-21 18 -21 9 -3 -6 12 -8 23 -6 26 3 3 -3 5 -12 5 -10 0 -21 -5 -25 -10 -3 -6
-5 2 -5 16 1 16 6 22 11 16 6 -5 14 -9 20 -9 5 0 -3 11 -19 24 -17 15 -23 26
-16 30 6 4 11 15 11 24 0 13 -2 13 -14 -4 -14 -19 -14 -19 -13 1 1 11 11 25
21 31 19 11 19 12 -2 18 -12 4 -27 4 -33 1 -13 -8 12 37 26 47 6 5 5 8 -2 8
-7 0 -13 9 -13 21 0 11 -4 17 -10 14 -6 -3 -10 5 -10 19 0 13 -3 26 -7 29 -5
2 -3 2 4 1 20 -5 24 13 7 27 -8 7 -19 20 -25 30 -8 15 -6 18 8 13 13 -3 12 -1
-2 6 -12 6 -27 21 -34 32 -13 20 -12 20 17 -1 23 -16 32 -18 38 -9 4 7 4 10
-1 6 -13 -12 -34 11 -28 30 4 15 3 15 -6 2 -9 -13 -11 -13 -11 0 0 9 5 21 11
27 8 8 7 13 -2 18 -7 5 -10 4 -5 -3 4 -6 -4 -16 -16 -23 -21 -11 -22 -11 -8 5
13 16 12 20 -3 31 -16 11 -16 13 -1 19 23 9 31 7 14 -4 -9 -6 -10 -10 -3 -10
19 0 26 20 9 26 -19 7 -28 32 -14 40 6 4 8 3 4 -4 -3 -6 -3 -13 2 -16 4 -2 8
8 7 24 0 16 -4 28 -10 27 -5 -1 -9 4 -7 11 1 7 -4 12 -12 10 -8 -2 -15 2 -15
7 -1 6 8 10 18 10 11 0 22 3 26 6 3 4 -2 6 -12 6 -35 0 -44 3 -38 13 4 6 12 7
18 3 8 -5 8 -2 0 9 -7 8 -9 19 -5 23 4 5 1 5 -6 1 -7 -4 -9 -12 -6 -18 4 -6 2
-8 -4 -5 -12 8 -4 49 12 59 8 5 7 8 -1 8 -7 0 -13 9 -13 19 0 11 6 22 13 24 6
3 -2 4 -19 2 -21 -2 -31 1 -31 11 0 10 4 11 13 3 12 -10 12 -7 5 64 -1 5 -5 5
-11 2 -6 -4 -10 5 -10 20 0 18 4 24 13 19 8 -5 8 -2 -2 9 -7 9 -19 17 -27 17
-18 0 -27 17 -13 26 7 4 9 3 6 -3 -3 -5 0 -10 7 -10 11 0 12 4 3 18 -7 12 -15
15 -23 9 -12 -11 -24 -3 -24 14 0 6 5 4 11 -4 9 -12 10 -12 5 3 -3 10 -6 21
-6 23 0 3 -6 -1 -14 -8 -8 -7 -11 -17 -8 -22 3 -5 0 -6 -6 -3 -5 4 -8 17 -6
30 2 12 2 16 -2 9 -3 -6 -10 -10 -15 -7 -5 4 -6 0 -3 -8 3 -10 -2 -13 -18 -11
-13 1 -27 3 -31 3 -5 1 -6 5 -3 10 4 5 -5 4 -19 -2 -14 -7 -25 -15 -25 -20 0
-4 -12 0 -27 10 -31 21 -53 25 -53 11 0 -6 6 -8 13 -5 8 3 14 -1 14 -8 0 -10
-5 -11 -19 -4 -10 5 -22 8 -27 5 -4 -3 -17 1 -27 9 -24 18 -34 19 -34 1 0 -23
-27 -26 -50 -4 -25 23 -39 17 -19 -9 12 -16 12 -17 -1 -7 -16 12 -55 12 -66 1
-4 -4 -12 -7 -18 -7 -5 0 -1 6 9 14 11 8 25 12 31 9 16 -6 27 14 13 23 -8 5
-9 3 -4 -6 6 -9 4 -12 -6 -8 -8 3 -23 0 -33 -8 -11 -7 -22 -11 -27 -9 -4 3 -6
-10 -5 -30 3 -30 1 -33 -15 -25 -13 7 -17 6 -15 -5 1 -8 6 -18 11 -22 4 -4 5
-2 0 6 -5 10 -4 12 4 7 14 -9 5 -26 -15 -26 -8 0 -14 -5 -14 -11 0 -5 4 -7 10
-4 6 3 7 -1 4 -9 -3 -9 -11 -14 -17 -13 -6 1 -12 -9 -12 -23 -1 -16 -6 -24
-15 -22 -10 2 -11 0 -2 -11 7 -8 8 -18 4 -22 -4 -5 -1 -5 6 -1 7 4 9 13 6 19
-4 7 -3 9 1 4 16 -14 16 -47 1 -41 -18 7 -30 -12 -15 -22 8 -4 9 -3 5 4 -11
18 0 14 15 -5 8 -9 9 -14 3 -10 -7 4 -17 -5 -24 -23 -7 -18 -17 -27 -24 -23
-7 4 -6 1 1 -9 7 -8 9 -19 5 -23 -4 -5 -1 -5 6 -1 7 4 10 11 7 16 -3 5 -1 11
4 14 11 7 9 -13 -2 -31 -8 -12 -2 -17 16 -14 5 1 6 -3 2 -9 -4 -6 -15 -4 -31
6 -22 15 -24 15 -18 0 3 -9 11 -16 18 -16 6 0 5 -4 -3 -9 -13 -8 -13 -12 0
-28 13 -16 12 -16 -16 1 -18 12 -26 14 -19 5 13 -18 11 -45 -3 -42 -8 2 -7 -5
2 -23 16 -31 8 -67 -12 -60 -8 4 -11 1 -7 -5 4 -6 1 -15 -6 -19 -9 -6 -7 -10
8 -14 12 -4 20 -15 19 -25 -1 -12 -6 -17 -15 -14 -10 4 -11 8 -2 13 9 5 8 9
-2 12 -9 4 -14 -4 -15 -24 0 -23 2 -27 9 -17 7 10 8 9 3 -6 -4 -11 -8 -25 -8
-32 0 -7 -4 -10 -8 -7 -4 2 -10 0 -14 -6 -4 -6 -11 -7 -17 -4 -6 4 -8 2 -5 -4
4 -5 17 -8 30 -6 12 2 16 2 9 -2 -6 -3 -10 -10 -7 -14 3 -5 0 -12 -6 -16 -8
-5 -9 -3 -4 6 5 9 4 11 -4 6 -9 -6 -9 -11 0 -22 6 -8 8 -14 3 -14 -4 0 1 -7
12 -16 18 -15 18 -15 -3 -5 -29 14 -28 14 -30 -11 -2 -16 0 -19 6 -10 7 11 10
10 14 -3 4 -9 3 -13 -2 -10 -5 3 -12 1 -16 -5 -4 -6 -10 -8 -15 -5 -4 3 -3 -6
3 -19 7 -13 15 -22 18 -20 4 2 6 -4 4 -13 -2 -10 -4 -21 -4 -25 -1 -5 -10 -8
-21 -8 -11 0 -20 -5 -20 -11 0 -5 4 -7 10 -4 6 4 7 -1 3 -11 -5 -13 -3 -15 8
-9 12 8 12 6 0 -8 -11 -14 -11 -17 0 -17 10 -1 8 -4 -3 -11 -22 -12 -24 -33
-2 -25 8 3 12 2 9 -4 -3 -5 -19 -7 -35 -5 -18 2 -28 0 -24 -6 3 -5 9 -7 14 -4
4 3 10 -9 12 -27 5 -29 4 -30 -10 -12 -14 18 -14 18 -8 -3 4 -12 3 -24 -3 -27
-5 -3 -7 -15 -4 -26 3 -11 10 -17 16 -13 6 3 7 1 3 -6 -4 -6 -16 -9 -26 -6
-21 7 -36 -10 -19 -21 8 -5 9 -3 4 6 -5 8 -3 11 6 8 7 -2 14 -18 14 -35 1 -21
-3 -29 -12 -26 -10 4 -11 9 -2 19 10 12 9 13 -4 8 -14 -5 -17 -27 -7 -54 2 -3
2 -9 1 -14 -1 -4 6 -15 16 -23 17 -13 16 -13 -4 -4 -31 16 -47 14 -31 -3 7 -8
18 -11 23 -8 6 3 4 -2 -4 -11 -11 -14 -11 -20 -1 -33 11 -12 11 -15 0 -12 -9
2 -15 -6 -16 -19 -1 -13 -3 -25 -4 -28 -1 -3 -3 -8 -4 -12 -1 -5 -5 -14 -9
-20 -5 -7 -6 -17 -3 -22 3 -5 -3 -11 -14 -14 -14 -3 -24 1 -31 15 -8 15 -13
17 -25 7 -8 -6 -14 -8 -14 -4 0 4 -8 1 -17 -6 -16 -12 -17 -12 -6 2 7 9 10 19
6 23 -4 4 0 4 10 0 10 -3 17 -1 17 5 0 6 -8 11 -17 12 -11 0 -13 3 -5 6 6 2
12 9 12 14 0 6 -4 7 -10 4 -16 -10 -12 11 5 25 8 7 15 18 15 24 0 6 -5 3 -11
-6 -5 -10 -15 -18 -21 -18 -9 0 -9 3 -1 11 9 9 6 17 -10 31 -12 11 -16 17 -9
13 6 -3 12 0 12 7 1 8 6 6 15 -6 8 -11 15 -16 15 -10 0 5 -7 18 -15 28 -8 10
-12 23 -8 28 3 6 -5 4 -18 -3 -22 -11 -23 -11 -10 5 12 14 11 19 -3 34 -19 21
-20 32 -5 32 5 0 7 -5 3 -12 -5 -7 -3 -8 6 -3 9 6 11 4 5 -6 -7 -12 -6 -12 6
-1 12 11 11 15 -3 23 -10 5 -15 16 -12 24 4 8 1 15 -5 15 -6 0 -11 -4 -11 -10
0 -5 -4 -10 -8 -10 -5 0 -9 7 -9 15 0 8 4 12 9 9 4 -3 8 9 8 25 0 17 -5 31
-11 31 -5 0 -7 5 -4 10 4 6 11 7 17 4 7 -4 8 -2 4 5 -4 6 -12 9 -17 6 -5 -4
-9 8 -9 25 0 18 4 29 10 25 6 -3 7 1 3 10 -4 13 -8 14 -14 4 -4 -8 -11 -10
-15 -6 -4 4 -3 12 4 19 8 8 7 19 -5 41 -13 25 -13 29 -1 24 8 -3 15 1 15 8 0
10 -7 11 -25 4 -14 -5 -27 -8 -29 -5 -3 2 5 7 16 11 12 3 19 11 15 16 -3 5 -9
7 -14 4 -5 -3 -12 0 -16 7 -4 7 -4 10 1 6 10 -10 38 29 30 42 -3 5 -12 7 -21
3 -8 -3 -14 -2 -13 3 4 22 -2 35 -13 28 -7 -4 -8 -3 -4 5 4 6 12 9 17 6 5 -4
9 -3 10 2 0 4 2 15 4 24 1 9 -3 16 -11 16 -10 0 -11 -4 -3 -14 7 -8 8 -13 1
-13 -21 0 -20 29 1 44 21 15 21 15 -8 6 -27 -9 -28 -9 -12 4 15 11 15 15 3 19
-8 3 -17 2 -20 -4 -2 -5 -3 -4 -2 3 2 7 12 13 23 13 12 0 25 4 30 9 4 5 3 6
-4 2 -6 -3 -14 -2 -18 3 -3 6 -13 7 -23 4 -9 -3 -14 -3 -10 2 4 4 3 17 -3 28
-7 12 -7 17 -1 13 5 -3 12 1 15 9 4 10 1 12 -11 9 -14 -5 -13 -2 3 11 20 17
20 17 -5 10 -14 -4 -22 -4 -18 0 4 4 3 17 -3 28 -8 14 -8 18 0 13 6 -4 12 -4
12 1 6 38 4 54 -7 64 -10 8 -14 8 -14 0 0 -6 6 -11 13 -11 8 0 7 -4 -3 -10
-10 -6 -11 -10 -2 -10 6 0 12 -4 12 -8 0 -5 -6 -9 -14 -9 -7 0 -12 7 -11 16 2
9 -3 25 -10 37 -11 17 -11 21 0 21 8 0 12 -3 10 -7 -2 -3 5 -6 16 -6 19 0 18
1 -3 17 -12 10 -27 15 -32 12 -5 -3 -6 -1 -2 6 4 6 11 9 15 7 4 -3 7 6 7 19 0
13 -4 22 -8 19 -4 -3 -16 0 -25 5 -10 6 -12 11 -5 11 6 0 12 9 12 19 0 11 5
23 12 27 8 5 7 10 -3 18 -16 12 -18 25 -6 44 10 15 -14 12 -25 -3 -5 -6 -12
-5 -20 4 -11 11 -11 13 0 6 9 -4 15 0 19 14 3 12 10 18 17 14 7 -4 6 -1 -1 9
-7 8 -9 18 -5 23 4 4 -3 3 -15 -4 -15 -7 -24 -8 -28 -1 -4 6 -1 9 5 8 6 -2 19
7 27 20 14 20 14 22 -1 16 -9 -3 -13 -11 -9 -17 3 -6 1 -7 -6 -3 -9 6 -9 11 0
22 10 12 9 13 -7 7 -17 -6 -18 -5 -4 12 9 11 10 16 3 11 -8 -4 -13 -1 -13 9 0
9 4 14 9 10 5 -3 13 -1 16 5 4 6 1 9 -7 8 -8 -2 -12 5 -10 17 2 16 1 17 -7 5
-5 -8 -7 -18 -5 -22 3 -4 0 -8 -5 -8 -14 0 -9 34 9 57 14 16 14 17 -2 5 -19
-15 -38 -8 -38 14 0 11 -6 13 -20 9 -16 -5 -19 -3 -14 12 5 14 2 14 -14 -4
-20 -23 -33 -29 -31 -15 3 18 -2 32 -12 32 -6 0 -9 -6 -6 -14 6 -15 -36 -14
-56 2 -7 5 -19 9 -27 9 -8 1 -24 4 -35 7 -13 5 -12 2 5 -8z m-183 -22 c0 -9
-5 -10 -19 -3 -10 5 -18 12 -18 14 0 2 8 3 18 2 10 0 19 -7 19 -13z m1118
-154 c-3 -4 0 -10 7 -12 8 -3 7 -6 -3 -10 -11 -4 -15 1 -15 17 0 13 4 21 8 19
5 -3 6 -9 3 -14z m575 16 c0 -3 -4 -8 -10 -11 -5 -3 -10 -1 -10 4 0 6 5 11 10
11 6 0 10 -2 10 -4z m30 -85 c0 -5 -7 -12 -16 -15 -14 -5 -15 -4 -4 9 14 17
20 19 20 6z m3 -36 c-3 -9 -8 -14 -10 -11 -3 3 -2 9 2 15 9 16 15 13 8 -4z
m-1229 -46 c-3 -5 -10 -9 -16 -9 -6 0 -8 3 -5 7 4 3 -1 12 -11 20 -15 12 -13
12 10 2 15 -7 25 -16 22 -20z m-671 -94 c-7 -21 -12 -19 -10 4 0 11 5 18 9 15
4 -3 5 -11 1 -19z m1947 -6 c0 -6 -4 -7 -10 -4 -5 3 -10 11 -10 16 0 6 5 7 10
4 6 -3 10 -11 10 -16z m-20 -19 c0 -5 -2 -10 -4 -10 -3 0 -8 5 -11 10 -3 6 -1
10 4 10 6 0 11 -4 11 -10z m-685 -18 c-3 -3 -11 0 -18 7 -9 10 -8 11 6 5 10
-3 15 -9 12 -12z m-15 -22 c0 -5 -2 -10 -4 -10 -3 0 -8 5 -11 10 -3 6 -1 10 4
10 6 0 11 -4 11 -10z m-20 -184 c0 -3 -4 -8 -10 -11 -5 -3 -10 -1 -10 4 0 6 5
11 10 11 6 0 10 -2 10 -4z m800 -11 c11 -13 10 -14 -4 -9 -9 3 -16 10 -16 15
0 13 6 11 20 -6z m-2115 -114 c-3 -5 -1 -12 5 -16 13 -8 13 -25 -1 -25 -5 0
-8 4 -4 9 3 5 1 12 -5 16 -10 6 -5 25 6 25 3 0 3 -4 -1 -9z m2135 5 c0 -2 -8
-10 -17 -17 -16 -13 -17 -12 -4 4 13 16 21 21 21 13z m-1235 -65 c-3 -6 -11
-11 -17 -11 -6 0 -6 6 2 15 14 17 26 13 15 -4z m355 9 c0 -5 -2 -10 -4 -10 -3
0 -8 5 -11 10 -3 6 -1 10 4 10 6 0 11 -4 11 -10z m-1260 -41 c0 -5 -4 -9 -8
-9 -5 0 -9 7 -9 15 0 8 4 12 9 9 4 -3 8 -9 8 -15z m-20 -59 c0 -5 -2 -10 -4
-10 -3 0 -8 5 -11 10 -3 6 -1 10 4 10 6 0 11 -4 11 -10z m1 -37 c12 -16 12
-17 -2 -6 -9 7 -20 9 -24 5 -5 -4 -5 -1 -1 6 9 16 11 15 27 -5z m944 7 c3 -6
-1 -7 -9 -4 -18 7 -21 14 -7 14 6 0 13 -4 16 -10z m275 -130 c0 -5 -5 -10 -11
-10 -5 0 -7 5 -4 10 3 6 8 10 11 10 2 0 4 -4 4 -10z m-252 -25 c-3 -3 -9 2
-12 12 -6 14 -5 15 5 6 7 -7 10 -15 7 -18z m-1003 -15 c3 -6 -1 -7 -9 -4 -18
7 -21 14 -7 14 6 0 13 -4 16 -10z m1776 -63 c-6 -8 -9 -16 -6 -19 3 -2 -2 -5
-10 -5 -13 0 -13 3 2 19 19 21 31 25 14 5z m-1281 -21 c-7 -7 -13 -7 -20 0 -6
6 -3 10 10 10 13 0 16 -4 10 -10z m29 -29 c9 3 12 1 6 -4 -6 -4 -16 -20 -22
-35 -8 -17 -18 -25 -30 -23 -10 2 -22 4 -27 4 -6 1 4 12 22 24 17 13 29 27 25
30 -3 4 -13 1 -22 -6 -14 -11 -14 -10 -2 6 9 11 18 14 24 8 5 -5 17 -7 26 -4z
m-554 -7 c-3 -5 -12 -10 -18 -10 -7 0 -6 4 3 10 19 12 23 12 15 0z m1085 -20
c0 -5 -5 -10 -11 -10 -5 0 -7 5 -4 10 3 6 8 10 11 10 2 0 4 -4 4 -10z m-509
-23 c-7 -7 -14 -8 -21 -1 -6 6 -2 10 12 11 16 2 18 -1 9 -10z m9 -21 c0 -2 -7
-7 -16 -10 -8 -3 -12 -2 -9 4 6 10 25 14 25 6z m1140 -46 c0 -5 -5 -10 -11
-10 -5 0 -7 5 -4 10 3 6 8 10 11 10 2 0 4 -4 4 -10z m615 -9 c3 -5 2 -12 -3
-15 -5 -3 -9 1 -9 9 0 17 3 19 12 6z m-1164 -96 c5 4 9 1 9 -5 0 -6 5 -8 12
-4 6 4 8 3 5 -4 -9 -13 -48 -3 -65 17 -11 14 -12 13 -3 -6 6 -12 18 -29 27
-37 8 -9 10 -16 4 -16 -6 0 -13 7 -16 15 -4 8 -10 12 -15 9 -5 -3 -9 -2 -8 3
4 22 -2 34 -13 27 -7 -4 -4 2 6 14 19 22 19 22 33 2 8 -11 19 -18 24 -15z
m689 5 c0 -5 -2 -10 -4 -10 -3 0 -8 5 -11 10 -3 6 -1 10 4 10 6 0 11 -4 11
-10z m515 -9 c3 -5 2 -12 -3 -15 -5 -3 -9 1 -9 9 0 17 3 19 12 6z m-1198 -76
c0 -8 -3 -13 -5 -10 -3 3 -15 -3 -26 -12 -15 -13 -14 -10 3 10 29 32 28 31 28
12z m499 -50 c-1 -8 -6 -18 -11 -22 -4 -4 -5 -2 -1 5 4 7 2 12 -6 12 -9 0 -9
3 2 10 19 12 19 13 16 -5z m-1256 -36 c0 -5 -5 -9 -12 -9 -6 0 -8 3 -5 7 4 3
1 13 -6 22 -11 14 -10 14 6 2 9 -7 17 -17 17 -22z m740 16 c-5 -7 -8 -14 -5
-17 3 -2 -2 -5 -10 -5 -10 0 -12 4 -5 12 5 7 8 14 5 17 -3 2 2 5 10 5 10 0 12
-4 5 -12z m-520 -15 c0 -5 -2 -10 -4 -10 -3 0 -8 5 -11 10 -3 6 -1 10 4 10 6
0 11 -4 11 -10z m20 -19 c0 -5 -7 -12 -16 -15 -14 -5 -15 -4 -4 9 14 17 20 19
20 6z m-767 -46 c-3 -9 -8 -14 -10 -11 -3 3 -2 9 2 15 9 16 15 13 8 -4z m771
6 c4 -5 -3 -7 -14 -4 -23 6 -26 13 -6 13 8 0 17 -4 20 -9z m-274 -75 c0 -3 -4
-8 -10 -11 -5 -3 -10 -1 -10 4 0 6 5 11 10 11 6 0 10 -2 10 -4z m-15 -35 c3
-5 0 -13 -6 -17 -7 -4 -9 -3 -5 4 3 5 0 13 -6 15 -9 4 -10 6 -1 6 6 1 14 -3
18 -8z m1579 -59 c2 -4 -4 -8 -14 -8 -10 0 -16 4 -14 8 3 4 9 8 14 8 5 0 11
-4 14 -8z m-1221 -126 c3 -8 -2 -20 -11 -27 -14 -11 -15 -11 -5 0 6 7 9 20 6
27 -3 8 -3 14 0 14 3 0 7 -6 10 -14z m24 -178 c2 -17 0 -19 -7 -8 -5 8 -6 18
-4 22 8 12 10 10 11 -14z m803 12 c0 -5 -4 -10 -10 -10 -5 0 -10 5 -10 10 0 6
5 10 10 10 6 0 10 -4 10 -10z m448 -11 c3 -11 2 -11 -7 1 -9 13 -12 12 -25 -5
-9 -11 -16 -15 -16 -9 0 14 22 35 34 31 5 -2 11 -10 14 -18z m-1646 -16 c-6
-3 -10 -8 -7 -13 7 -11 -22 -7 -32 5 -4 4 -3 5 3 2 7 -4 17 0 24 8 7 9 16 13
19 9 3 -4 0 -9 -7 -11z m413 -20 c-1 -10 1 -25 6 -34 5 -10 4 -16 -5 -16 -8 0
-12 10 -10 24 1 13 -3 23 -9 23 -7 0 -5 5 3 10 19 13 19 13 15 -7z m1260 8
c-9 -8 -36 -10 -30 -2 2 4 11 8 20 8 8 0 13 -3 10 -6z m-495 -45 c-7 -7 -13
-7 -20 0 -6 6 -3 10 10 10 13 0 16 -4 10 -10z m-1716 -77 c-3 -5 -10 -7 -15
-3 -5 3 -7 10 -3 15 3 5 10 7 15 3 5 -3 7 -10 3 -15z m713 -4 c0 -8 -4 -12 -9
-9 -5 3 -6 10 -3 15 9 13 12 11 12 -6z m1857 -144 c3 -5 -2 -15 -12 -22 -15
-13 -16 -12 -4 3 10 13 10 17 0 21 -9 4 -9 6 -1 6 6 1 14 -3 17 -8z m-619 -11
c3 -6 -1 -7 -9 -4 -18 7 -21 14 -7 14 6 0 13 -4 16 -10z m595 -45 c-7 -9 -15
-13 -17 -11 -7 7 7 26 19 26 6 0 6 -6 -2 -15z m-1513 -12 c-4 -3 -2 -11 3 -18
7 -8 5 -12 -4 -12 -8 0 -12 7 -11 16 5 22 4 21 12 21 3 0 3 -3 0 -7z m1458
-71 c-3 -3 -11 0 -18 7 -9 10 -8 11 6 5 10 -3 15 -9 12 -12z m-1759 -18 c1 -9
0 -13 -4 -10 -3 4 -7 14 -8 22 -1 9 0 13 4 10 3 -4 7 -14 8 -22z m1219 -14 c3
-6 -1 -7 -9 -4 -18 7 -21 14 -7 14 6 0 13 -4 16 -10z m160 -130 c4 -6 11 -8
16 -5 5 4 9 2 9 -4 0 -18 -15 -18 -32 1 -10 10 -14 18 -9 18 6 0 13 -5 16 -10z"/>
<path d="M950 1705 c-11 -13 -10 -14 4 -9 9 3 16 10 16 15 0 13 -6 11 -20 -6z"/>
<path d="M1083 3005 c0 -8 4 -12 9 -9 5 3 6 10 3 15 -9 13 -12 11 -12 -6z"/>
<path d="M2203 3005 c0 -8 4 -12 9 -9 5 3 6 10 3 15 -9 13 -12 11 -12 -6z"/>
<path d="M930 2999 c0 -5 5 -7 10 -4 6 3 10 8 10 11 0 2 -4 4 -10 4 -5 0 -10
-5 -10 -11z"/>
<path d="M2100 3005 c0 -10 29 -24 34 -17 3 6 -3 12 -14 15 -11 3 -20 4 -20 2z"/>
<path d="M2370 2999 c0 -5 5 -7 10 -4 6 3 10 8 10 11 0 2 -4 4 -10 4 -5 0 -10
-5 -10 -11z"/>
<path d="M1223 2975 c0 -8 4 -12 9 -9 5 3 6 10 3 15 -9 13 -12 11 -12 -6z"/>
<path d="M1881 2714 c0 -11 3 -14 6 -6 3 7 2 16 -1 19 -3 4 -6 -2 -5 -13z"/>
<path d="M630 2696 c0 -2 7 -7 16 -10 8 -3 12 -2 9 4 -6 10 -25 14 -25 6z"/>
<path d="M590 2560 c-9 -6 -10 -10 -3 -10 6 0 15 5 18 10 8 12 4 12 -15 0z"/>
<path d="M1366 2443 c-6 -14 -5 -15 5 -6 7 7 10 15 7 18 -3 3 -9 -2 -12 -12z"/>
<path d="M1385 2360 c-3 -6 1 -7 9 -4 18 7 21 14 7 14 -6 0 -13 -4 -16 -10z"/>
<path d="M1790 2340 c0 -5 5 -10 11 -10 5 0 7 5 4 10 -3 6 -8 10 -11 10 -2 0
-4 -4 -4 -10z"/>
<path d="M543 2315 c4 -5 0 -17 -10 -27 -9 -10 -12 -18 -7 -18 5 0 15 9 21 20
10 15 10 21 0 26 -6 4 -9 3 -4 -1z"/>
<path d="M1426 2202 c-3 -5 1 -9 9 -9 8 0 12 4 9 9 -3 4 -7 8 -9 8 -2 0 -6 -4
-9 -8z"/>
<path d="M1750 2106 c7 -7 14 -6 21 1 9 9 7 12 -9 10 -14 -1 -18 -5 -12 -11z"/>
<path d="M2690 2086 c0 -2 9 -6 20 -9 11 -3 20 -1 20 4 0 5 -9 9 -20 9 -11 0
-20 -2 -20 -4z"/>
<path d="M1724 2019 c0 -13 3 -15 13 -7 7 6 13 12 13 13 0 2 -6 5 -13 8 -7 3
-13 -3 -13 -14z"/>
<path d="M425 1840 c-3 -5 -2 -10 4 -10 5 0 13 5 16 10 3 6 2 10 -4 10 -5 0
-13 -4 -16 -10z"/>
<path d="M2760 1839 c0 -5 5 -7 10 -4 6 3 10 8 10 11 0 2 -4 4 -10 4 -5 0 -10
-5 -10 -11z"/>
<path d="M2765 1810 c-3 -6 1 -7 9 -4 18 7 21 14 7 14 -6 0 -13 -4 -16 -10z"/>
<path d="M1651 1763 c-1 -17 16 -25 25 -12 4 7 3 9 -4 5 -5 -3 -13 0 -15 6 -4
9 -6 10 -6 1z"/>
<path d="M1650 1700 c0 -5 5 -10 11 -10 5 0 7 5 4 10 -3 6 -8 10 -11 10 -2 0
-4 -4 -4 -10z"/>
<path d="M1645 1659 c1 -10 4 -21 8 -24 4 -3 5 -2 2 2 -3 3 0 12 5 18 7 9 6
14 -3 18 -9 3 -13 -2 -12 -14z"/>
<path d="M2213 1653 c-3 -8 -3 -17 1 -20 3 -4 6 1 6 11 0 9 4 15 9 11 5 -3 12
-2 15 3 3 5 -2 9 -10 9 -9 0 -18 -7 -21 -14z"/>
<path d="M973 1630 c1 -21 10 -18 13 5 1 8 -2 15 -6 15 -5 0 -8 -9 -7 -20z"/>
<path d="M2815 1639 c-4 -6 -5 -12 -2 -15 2 -3 7 2 10 11 7 17 1 20 -8 4z"/>
<path d="M1637 1615 c3 -8 9 -12 14 -9 12 7 11 11 -5 17 -10 4 -13 1 -9 -8z"/>
<path d="M2234 1622 c4 -3 14 -7 22 -8 9 -1 13 0 10 4 -4 3 -14 7 -22 8 -9 1
-13 0 -10 -4z"/>
<path d="M1627 1585 c3 -8 9 -12 14 -9 12 7 11 11 -5 17 -10 4 -13 1 -9 -8z"/>
<path d="M990 1576 c0 -2 9 -6 20 -9 11 -3 18 -1 14 4 -5 9 -34 13 -34 5z"/>
<path d="M2190 1571 c0 -6 4 -13 10 -16 6 -3 7 1 4 9 -7 18 -14 21 -14 7z"/>
<path d="M887 1437 c-3 -8 0 -14 7 -14 7 0 13 6 13 14 0 7 -4 13 -8 13 -4 0
-9 -6 -12 -13z"/>
<path d="M2853 1415 c-7 -8 -9 -16 -4 -19 5 -3 12 1 15 10 8 22 4 25 -11 9z"/>
<path d="M2301 1391 c-11 -7 -9 -10 8 -16 18 -5 20 -9 10 -21 -10 -12 -9 -13
5 -8 19 7 20 15 4 37 -9 11 -18 14 -27 8z"/>
<path d="M852 1297 c-8 -10 -6 -13 11 -14 12 0 16 1 9 4 -6 3 -10 9 -6 14 8
14 -2 11 -14 -4z"/>
<path d="M2890 1260 c13 -24 17 -25 17 -5 0 8 -6 16 -14 19 -11 4 -11 1 -3
-14z"/>
<path d="M1097 1233 c-4 -3 -3 -11 0 -17 8 -11 13 -32 15 -53 1 -7 5 -10 10
-7 4 3 4 13 -1 22 -4 9 -7 25 -6 34 3 19 -8 32 -18 21z"/>
<path d="M2900 1201 c0 -10 19 -25 25 -20 1 2 -3 10 -11 17 -8 7 -14 8 -14 3z"/>
<path d="M264 1123 c2 -10 -1 -21 -6 -24 -5 -3 -3 -9 5 -12 10 -4 13 2 13 18
-1 13 -5 27 -8 30 -4 4 -5 -1 -4 -12z"/>
<path d="M2936 1045 c4 -8 10 -15 15 -15 4 0 6 7 3 15 -4 8 -10 15 -15 15 -4
0 -6 -7 -3 -15z"/>
<path d="M2046 1021 c-3 -5 2 -15 12 -22 15 -13 16 -12 4 3 -10 13 -10 17 0
21 9 4 9 6 1 6 -6 1 -14 -3 -17 -8z"/>
<path d="M2029 966 c0 -1 -2 -9 -4 -19 -3 -18 -3 -18 16 -1 10 9 19 18 19 19
0 2 -29 3 -31 1z"/>
<path d="M793 855 c0 -8 4 -12 9 -9 5 3 6 10 3 15 -9 13 -12 11 -12 -6z"/>
<path d="M200 835 c-11 -13 -10 -14 4 -9 9 3 16 10 16 15 0 13 -6 11 -20 -6z"/>
<path d="M2980 839 c0 -5 5 -7 10 -4 6 3 10 8 10 11 0 2 -4 4 -10 4 -5 0 -10
-5 -10 -11z"/>
<path d="M2197 807 c-3 -8 1 -14 8 -14 7 0 11 6 8 14 -3 7 -6 13 -8 13 -2 0
-5 -6 -8 -13z"/>
<path d="M219 733 c-13 -16 -12 -17 4 -4 16 13 21 21 13 21 -2 0 -10 -8 -17
-17z"/>
<path d="M226 704 c-5 -14 -4 -15 9 -4 17 14 19 20 6 20 -5 0 -12 -7 -15 -16z"/>
<path d="M1220 653 c11 -24 30 -31 30 -11 0 6 -3 8 -7 5 -3 -4 -12 1 -20 11
-13 15 -13 15 -3 -5z"/>
<path d="M2924 662 c3 -5 1 -12 -6 -14 -8 -3 -9 -6 -1 -11 6 -4 13 0 17 8 3 8
0 17 -6 21 -6 4 -8 3 -4 -4z"/>
<path d="M290 580 c0 -5 5 -10 11 -10 5 0 7 5 4 10 -3 6 -8 10 -11 10 -2 0 -4
-4 -4 -10z"/>
<path d="M1238 558 c5 -5 16 -8 23 -6 8 3 3 7 -10 11 -17 4 -21 3 -13 -5z"/>
<path d="M1016 522 c-3 -5 1 -9 9 -9 8 0 12 4 9 9 -3 4 -7 8 -9 8 -2 0 -6 -4
-9 -8z"/>
<path d="M360 490 c6 -11 15 -20 20 -20 6 0 2 9 -7 20 -10 11 -19 20 -21 20
-1 0 2 -9 8 -20z"/>
<path d="M1263 479 c-2 -23 3 -25 10 -4 4 8 3 16 -1 19 -4 3 -9 -4 -9 -15z"/>
<path d="M2173 475 c0 -8 4 -12 9 -9 4 3 8 9 8 15 0 5 -4 9 -8 9 -5 0 -9 -7
-9 -15z"/>
<path d="M388 453 c6 -2 9 -10 6 -15 -4 -7 -2 -8 5 -4 13 9 5 26 -12 25 -9 0
-8 -2 1 -6z"/>
<path d="M1005 300 c-3 -5 -1 -10 4 -10 6 0 11 5 11 10 0 6 -2 10 -4 10 -3 0
-8 -4 -11 -10z"/>
<path d="M2175 295 c17 -13 18 -17 5 -25 -12 -8 -12 -10 3 -16 10 -3 21 -4 24
0 4 3 1 6 -5 6 -6 0 -9 6 -6 14 3 9 -4 19 -18 26 -22 11 -22 11 -3 -5z"/>
<path d="M1314 269 c-4 -7 -3 -9 4 -5 5 3 12 0 15 -6 2 -7 7 -10 11 -7 4 3 0
12 -8 18 -11 9 -16 9 -22 0z"/>
<path d="M875 209 c-10 -15 3 -25 16 -12 7 7 7 13 1 17 -6 3 -14 1 -17 -5z"/>
<path d="M1580 205 c-7 -9 -8 -15 -2 -15 5 0 12 7 16 15 3 8 4 15 2 15 -2 0
-9 -7 -16 -15z"/>
<path d="M1706 212 c-3 -5 1 -9 9 -9 8 0 12 4 9 9 -3 4 -7 8 -9 8 -2 0 -6 -4
-9 -8z"/>
<path d="M2263 205 c0 -8 4 -12 9 -9 5 3 6 10 3 15 -9 13 -12 11 -12 -6z"/>
</g>
</svg>
